# xmcd
#
# Track frame offsets: 
#        150
#        18542
#        40139
#        64206
#        76612
#        93535
#        112294
#        138147
#        162856
#        180868
#        205063
#        226660
#        265569
#
# Disc length: 3865 seconds
#
# Revision: 0
# Processed by: cddbd v1.5.2PL0 Copyright (c) Steve Scherf et al.
# Submitted via: ExactAudioCopy v0.95b4
#
DISCID=9a0f170d
DTITLE=Duke Robillard - Passport To The Blues
DYEAR=2010
DGENRE=Blues
TTITLE0=Workin' Hard For My Uncle
TTITLE1=Hong Kong Suit
TTITLE2=Blues Train
TTITLE3=Girl Let Me Tell Ya
TTITLE4=Rhode Island Red Rooster
TTITLE5=Fatal Heart Attack
TTITLE6=Make It Rain
TTITLE7=When Your're Old You're Cold
TTITLE8=Text Me
TTITLE9=Duke's Evening Blues
TTITLE10=The High Cost of Lovin
TTITLE11=Grey Sky Blues
TTITLE12=Bradford Boogie
EXTD=
EXTT0=
EXTT1=
EXTT2=
EXTT3=
EXTT4=
EXTT5=
EXTT6=
EXTT7=
EXTT8=
EXTT9=
EXTT10=
EXTT11=
EXTT12=
PLAYORDER=
